# 3ds Max Wavefront OBJ Exporter v0.97b - (c)2007 guruware
# File Created: 13.12.2016 00:51:29

mtllib hoofdsteun.mtl

#
# object Hoofdsteun
#

v  -2.834646 1.312447 0.498542
v  -2.125985 1.312447 0.498542
v  -2.125985 1.312447 -0.188860
v  -2.834646 1.312447 -0.188860
v  -1.417323 1.312447 0.498542
v  -1.417323 1.312447 -0.188859
v  -0.708662 1.312447 0.498543
v  -0.708662 1.312447 -0.188859
v  -0.000001 1.312447 0.498542
v  -0.000001 1.312447 -0.188859
v  -2.125985 0.012706 0.498542
v  -2.125985 0.146002 0.498542
v  -2.834646 0.146002 0.498542
v  -2.834646 0.012706 0.498542
v  -1.417323 0.012706 0.498542
v  -1.417323 0.146002 0.498542
v  -0.708662 0.012706 0.498543
v  -0.708662 0.146002 0.498543
v  -0.000001 0.012706 0.498542
v  -0.000001 0.146002 0.498542
v  -0.708662 0.012706 -0.288859
v  -0.708662 0.146002 -0.288859
v  -0.000001 0.146002 -0.288859
v  -0.000001 0.012706 -0.288859
v  -1.417323 0.012706 -0.288859
v  -1.417323 0.146002 -0.288859
v  -2.125985 0.012706 -0.288860
v  -2.125985 0.146002 -0.288860
v  -2.834646 0.012706 -0.288860
v  -2.834646 0.146002 -0.288860
v  -3.218580 0.012706 -0.288860
v  -3.218580 0.146002 -0.288860
v  -3.218580 1.312447 0.498542
v  -3.218580 1.312447 -0.188860
v  -3.218580 0.146002 0.498542
v  -3.218580 0.012706 0.498542
v  -3.218580 1.212447 -0.288860
v  -3.218580 1.268003 -0.277749
v  -3.218580 1.301336 -0.244416
v  -0.708662 1.212447 -0.288859
v  -0.000001 1.212447 -0.288859
v  -1.417323 1.212447 -0.288859
v  -2.125985 1.212447 -0.288860
v  -2.834646 1.212447 -0.288860
v  -0.708662 1.301336 -0.244415
v  -0.000001 1.301336 -0.244415
v  -1.417323 1.301336 -0.244415
v  -2.125985 1.301336 -0.244415
v  -2.834646 1.301336 -0.244416
v  -0.708662 1.268003 -0.277749
v  -0.000001 1.268003 -0.277748
v  -1.417323 1.268003 -0.277748
v  -2.125985 1.268003 -0.277748
v  -2.834646 1.268003 -0.277749
v  2.834645 1.312447 -0.004188
v  2.834645 1.312447 -0.188859
v  2.125984 1.312447 -0.188859
v  2.834645 1.312447 0.498543
v  2.125983 1.312447 0.498543
v  1.417322 1.312447 -0.188859
v  1.417322 1.312447 0.498543
v  0.708661 1.312447 -0.188859
v  0.708661 1.312447 0.498542
v  2.125983 0.012706 0.498543
v  2.834645 0.012706 0.498543
v  2.834645 0.146002 0.498543
v  2.125983 0.146002 0.498543
v  1.417322 0.012706 0.498543
v  1.417322 0.146002 0.498543
v  0.708661 0.012706 0.498542
v  0.708661 0.146002 0.498542
v  0.708661 0.012706 -0.288859
v  0.708661 0.146002 -0.288859
v  1.417322 0.012706 -0.288859
v  1.417322 0.146002 -0.288859
v  2.125984 0.012706 -0.288859
v  2.125984 0.146002 -0.288859
v  2.834645 0.012706 -0.288858
v  2.834645 0.146002 -0.288858
v  3.218579 0.012706 -0.288858
v  3.218579 0.146002 -0.288858
v  3.218579 1.312447 0.498543
v  3.218579 1.312447 -0.188859
v  3.218579 0.012706 0.498543
v  3.218579 0.146002 0.498543
v  3.218579 1.212447 -0.288858
v  3.218579 1.268003 -0.277748
v  3.218579 1.301336 -0.244414
v  0.708661 1.212447 -0.288859
v  1.417322 1.212447 -0.288859
v  2.125984 1.212447 -0.288859
v  2.834645 1.212447 -0.288858
v  0.708661 1.301336 -0.244414
v  1.417322 1.301336 -0.244415
v  2.125984 1.301336 -0.244414
v  2.834645 1.301336 -0.244414
v  0.708661 1.268003 -0.277748
v  1.417322 1.268003 -0.277748
v  2.125984 1.268003 -0.277748
v  2.834645 1.268003 -0.277748
# 100 vertices

vn 0.000000 1.000000 -0.000000
vn 0.000000 0.000000 1.000000
vn -0.000001 0.000000 1.000000
vn 0.000000 0.000000 -1.000000
vn -0.000000 0.000000 -1.000000
vn 0.000001 0.000000 -1.000000
vn -0.000000 0.000000 1.000000
vn -1.000000 0.000000 -0.000000
vn 0.000000 0.980581 -0.196114
vn -0.000000 0.980581 -0.196115
vn 0.000000 0.980581 -0.196117
vn 0.000000 0.980581 -0.196115
vn 0.000000 0.707105 -0.707109
vn 0.000000 0.196112 -0.980581
vn -0.000000 0.707109 -0.707105
vn -0.000000 0.196109 -0.980582
vn 0.000000 0.707111 -0.707103
vn 0.000001 0.707107 -0.707107
vn 0.000000 0.196119 -0.980580
vn 0.000000 0.707103 -0.707111
vn 0.000000 0.196122 -0.980579
vn 1.000000 0.000000 0.000000
vn 0.000001 0.707105 -0.707109
vn -0.000000 0.707105 -0.707109
vn -0.000000 0.196122 -0.980579
vn 0.000000 0.196109 -0.980582
vn 0.000000 0.000001 1.000000
vn 0.000000 -0.999138 -0.041521
vn -0.000000 0.999138 0.041521
vn -0.000000 0.999133 -0.041631
vn 0.000000 -0.999133 0.041631
vn 0.000000 -1.000000 0.000001
vn -0.000000 0.992276 0.124053
vn 0.000000 -1.000000 0.000027
vn 0.000000 -1.000000 -0.000000
vn 0.000000 -1.000000 0.000000
vn -0.000000 -1.000000 -0.000000
# 37 vertex normals

vt 0.060083 0.000501 0.999501
vt 0.170062 0.000501 0.999501
vt 0.170062 0.872627 0.999501
vt 0.060083 0.872628 0.999501
vt 0.280042 0.000501 0.999501
vt 0.280042 0.872627 0.999501
vt 0.390021 0.000500 0.999501
vt 0.390021 0.872627 0.999501
vt 0.500000 0.000500 0.999501
vt 0.500000 0.872627 0.999501
vt 0.170062 0.000501 0.000499
vt 0.170062 0.000501 0.102953
vt 0.060083 0.000501 0.102953
vt 0.060083 0.000501 0.000499
vt 0.280042 0.000501 0.000499
vt 0.280042 0.000501 0.102953
vt 0.390021 0.000500 0.000499
vt 0.390021 0.000500 0.102953
vt 0.500000 0.000500 0.000500
vt 0.500000 0.000500 0.102953
vt 0.390021 0.999500 0.000499
vt 0.390021 0.999500 0.102953
vt 0.500000 0.999500 0.102953
vt 0.500000 0.999500 0.000500
vt 0.280042 0.999500 0.000499
vt 0.280042 0.999500 0.102953
vt 0.170062 0.999500 0.000499
vt 0.170062 0.999500 0.102953
vt 0.060083 0.999501 0.000499
vt 0.060083 0.999501 0.102953
vt 0.000500 0.999501 0.000499
vt 0.000500 0.999501 0.102953
vt 0.000499 0.000501 0.999501
vt 0.000500 0.872628 0.999501
vt 0.000499 0.000501 0.102953
vt 0.000499 0.000501 0.000499
vt 0.000500 0.999501 0.922639
vt 0.000500 0.985404 0.965340
vt 0.000500 0.943112 0.990960
vt 0.390021 0.999500 0.922639
vt 0.500000 0.999500 0.922639
vt 0.280042 0.999500 0.922639
vt 0.170062 0.999500 0.922639
vt 0.060083 0.999501 0.922639
vt 0.390021 0.943111 0.990960
vt 0.500000 0.943111 0.990960
vt 0.280042 0.943112 0.990960
vt 0.170062 0.943112 0.990960
vt 0.060083 0.943112 0.990960
vt 0.390021 0.985403 0.965340
vt 0.500000 0.985403 0.965340
vt 0.280042 0.985403 0.965340
vt 0.170062 0.985403 0.965340
vt 0.060083 0.985404 0.965340
vt 0.939917 0.638328 0.999501
vt 0.939917 0.872626 0.999501
vt 0.829938 0.872626 0.999501
vt 0.939917 0.000499 0.999501
vt 0.829938 0.000500 0.999501
vt 0.719958 0.872626 0.999501
vt 0.719958 0.000500 0.999501
vt 0.609979 0.872627 0.999501
vt 0.609979 0.000500 0.999501
vt 0.829938 0.000500 0.000500
vt 0.939917 0.000499 0.000500
vt 0.939917 0.000499 0.102953
vt 0.829938 0.000500 0.102953
vt 0.719958 0.000500 0.000500
vt 0.719958 0.000500 0.102953
vt 0.609979 0.000500 0.000500
vt 0.609979 0.000500 0.102953
vt 0.609979 0.999499 0.000500
vt 0.609979 0.999499 0.102953
vt 0.719958 0.999499 0.000500
vt 0.719958 0.999499 0.102953
vt 0.829938 0.999499 0.000500
vt 0.829938 0.999499 0.102953
vt 0.939917 0.999499 0.000500
vt 0.939917 0.999499 0.102953
vt 0.999501 0.999499 0.000500
vt 0.999501 0.999499 0.102953
vt 0.999500 0.000499 0.999501
vt 0.999501 0.872626 0.999501
vt 0.999500 0.000499 0.000500
vt 0.999500 0.000499 0.102953
vt 0.999501 0.999499 0.922639
vt 0.999501 0.985402 0.965340
vt 0.999501 0.943110 0.990960
vt 0.609979 0.999499 0.922639
vt 0.719958 0.999499 0.922639
vt 0.829938 0.999499 0.922639
vt 0.939917 0.999499 0.922639
vt 0.609979 0.943111 0.990960
vt 0.719958 0.943111 0.990960
vt 0.829938 0.943111 0.990960
vt 0.939917 0.943110 0.990960
vt 0.609979 0.985403 0.965340
vt 0.719958 0.985402 0.965340
vt 0.829938 0.985402 0.965340
vt 0.939917 0.985402 0.965340
# 100 texture coords

g Hoofdsteun
usemtl 01___Default
f 1/1/1 2/2/1 3/3/1 
f 3/3/1 4/4/1 1/1/1 
f 2/2/1 5/5/1 6/6/1 
f 6/6/1 3/3/1 2/2/1 
f 5/5/1 7/7/1 8/8/1 
f 8/8/1 6/6/1 5/5/1 
f 7/7/1 9/9/1 10/10/1 
f 10/10/1 8/8/1 7/7/1 
f 11/11/2 12/12/2 13/13/2 14/14/2 
f 15/15/2 16/16/2 12/12/2 11/11/2 
f 17/17/3 18/18/3 16/16/3 15/15/3 
f 19/19/2 20/20/2 18/18/2 17/17/2 
f 21/21/4 22/22/4 23/23/4 24/24/4 
f 25/25/5 26/26/5 22/22/5 21/21/5 
f 27/27/6 28/28/6 26/26/6 25/25/6 
f 29/29/6 30/30/6 28/28/6 27/27/6 
f 31/31/4 32/32/4 30/30/4 29/29/4 
f 33/33/1 1/1/1 4/4/1 
f 33/33/1 4/4/1 34/34/1 
f 14/14/7 13/13/7 35/35/7 36/36/7 
f 32/32/8 35/35/8 33/33/8 37/37/8 
f 38/38/8 37/37/8 33/33/8 39/39/8 
f 34/34/8 39/39/8 33/33/8 
f 2/2/2 1/1/2 13/13/2 12/12/2 
f 5/5/2 2/2/2 12/12/2 16/16/2 
f 7/7/3 5/5/3 16/16/3 18/18/3 
f 9/9/2 7/7/2 18/18/2 20/20/2 
f 40/40/4 41/41/4 23/23/4 22/22/4 
f 42/42/5 40/40/5 22/22/5 26/26/5 
f 43/43/6 42/42/6 26/26/6 28/28/6 
f 44/44/6 43/43/6 28/28/6 30/30/6 
f 37/37/4 44/44/4 30/30/4 32/32/4 
f 1/1/7 33/33/7 35/35/7 13/13/7 
f 31/31/8 36/36/8 35/35/8 32/32/8 
f 45/45/9 8/8/9 10/10/9 46/46/9 
f 47/47/10 6/6/10 8/8/10 45/45/10 
f 48/48/11 3/3/11 6/6/11 47/47/11 
f 49/49/12 4/4/12 3/3/12 48/48/12 
f 39/39/9 34/34/9 4/4/9 49/49/9 
f 50/50/13 45/45/13 46/46/13 51/51/13 
f 40/40/14 50/50/14 51/51/14 41/41/14 
f 52/52/15 47/47/15 45/45/15 50/50/15 
f 42/42/16 52/52/16 50/50/16 40/40/16 
f 53/53/17 48/48/17 47/47/17 52/52/17 
f 43/43/14 53/53/14 52/52/14 42/42/14 
f 54/54/18 49/49/18 48/48/18 53/53/18 
f 44/44/19 54/54/19 53/53/19 43/43/19 
f 38/38/20 39/39/20 49/49/20 54/54/20 
f 37/37/21 38/38/21 54/54/21 44/44/21 
f 55/55/1 56/56/1 57/57/1 58/58/1 
f 58/58/1 57/57/1 59/59/1 
f 57/57/1 60/60/1 59/59/1 
f 59/59/1 60/60/1 61/61/1 
f 60/60/1 62/62/1 61/61/1 
f 61/61/1 62/62/1 63/63/1 
f 62/62/1 10/10/1 63/63/1 
f 63/63/1 10/10/1 9/9/1 
f 64/64/2 65/65/2 66/66/2 67/67/2 
f 68/68/2 64/64/2 67/67/2 69/69/2 
f 70/70/3 68/68/3 69/69/3 71/71/3 
f 19/19/2 70/70/2 71/71/2 20/20/2 
f 72/72/4 24/24/4 23/23/4 73/73/4 
f 74/74/5 72/72/5 73/73/5 75/75/5 
f 76/76/6 74/74/6 75/75/6 77/77/6 
f 78/78/6 76/76/6 77/77/6 79/79/6 
f 80/80/4 78/78/4 79/79/4 81/81/4 
f 82/82/1 83/83/1 56/56/1 55/55/1 
f 82/82/1 55/55/1 58/58/1 
f 65/65/7 84/84/7 85/85/7 66/66/7 
f 82/82/22 85/85/22 81/81/22 86/86/22 
f 82/82/22 86/86/22 87/87/22 88/88/22 
f 83/83/22 82/82/22 88/88/22 
f 59/59/2 67/67/2 66/66/2 58/58/2 
f 61/61/2 69/69/2 67/67/2 59/59/2 
f 63/63/3 71/71/3 69/69/3 61/61/3 
f 9/9/2 20/20/2 71/71/2 63/63/2 
f 89/89/4 73/73/4 23/23/4 41/41/4 
f 90/90/5 75/75/5 73/73/5 89/89/5 
f 91/91/6 77/77/6 75/75/6 90/90/6 
f 92/92/6 79/79/6 77/77/6 91/91/6 
f 86/86/4 81/81/4 79/79/4 92/92/4 
f 58/58/7 66/66/7 85/85/7 82/82/7 
f 80/80/22 81/81/22 85/85/22 84/84/22 
f 93/93/12 46/46/12 10/10/12 62/62/12 
f 94/94/10 93/93/10 62/62/10 60/60/10 
f 95/95/12 94/94/12 60/60/12 57/57/12 
f 96/96/11 95/95/11 57/57/11 56/56/11 
f 88/88/11 96/96/11 56/56/11 83/83/11 
f 97/97/23 51/51/23 46/46/23 93/93/23 
f 89/89/19 41/41/19 51/51/19 97/97/19 
f 98/98/24 97/97/24 93/93/24 94/94/24 
f 90/90/25 89/89/25 97/97/25 98/98/25 
f 99/99/18 98/98/18 94/94/18 95/95/18 
f 91/91/19 90/90/19 98/98/19 99/99/19 
f 100/100/17 99/99/17 95/95/17 96/96/17 
f 92/92/14 91/91/14 99/99/14 100/100/14 
f 87/87/17 100/100/17 96/96/17 88/88/17 
f 86/86/26 92/92/26 100/100/26 87/87/26 
f 19/19/27 17/17/28 70/70/29 
f 17/17/28 15/15/30 68/68/31 70/70/29 
f 15/15/30 11/11/30 64/64/31 68/68/31 
f 11/11/30 14/14/32 65/65/33 64/64/31 
f 84/84/34 65/65/33 14/14/32 
f 80/80/35 84/84/34 14/14/32 78/78/35 
f 14/14/32 36/36/35 31/31/35 29/29/35 
f 14/14/32 29/29/35 27/27/35 25/25/35 
f 14/14/32 25/25/35 21/21/36 24/24/35 
f 14/14/32 24/24/35 72/72/37 74/74/35 
f 14/14/32 74/74/35 76/76/35 78/78/35 
# 87 polygons - 22 triangles

