# 3ds Max Wavefront OBJ Exporter v0.97b - (c)2007 guruware
# File Created: 13.12.2016 00:49:39

mtllib plank_voor.mtl

#
# object Frame_plank_voor
#

v  0.000000 0.008378 -0.122778
v  -0.708661 0.008378 -0.122778
v  -0.708661 0.191013 -0.122778
v  0.000000 0.191013 -0.122778
v  -1.417323 0.008378 -0.122778
v  -1.417323 0.191013 -0.122778
v  -2.125984 0.008378 -0.122778
v  -2.125984 0.191013 -0.122778
v  -1.673527 0.191013 -0.122778
v  -2.834646 0.008378 -0.122778
v  -2.834646 0.191013 -0.122778
v  -2.578442 0.191013 -0.122778
v  -3.218579 0.008378 -0.122778
v  -3.218579 0.191013 -0.122778
v  -0.708661 0.373648 -0.122778
v  0.000000 0.373648 -0.122778
v  -1.417323 0.373648 -0.122778
v  -2.125984 0.373648 -0.122778
v  -2.834646 0.373648 -0.122778
v  -3.218579 0.373648 -0.122778
v  0.000000 0.373648 0.074073
v  -0.708661 0.373648 0.074073
v  -0.708661 0.556283 0.074073
v  0.000000 0.556283 0.074073
v  -1.417323 0.373648 0.074073
v  -1.417323 0.556283 0.074073
v  -2.125984 0.373648 0.074073
v  -2.125984 0.556283 0.074073
v  -1.673527 0.556283 0.074073
v  -2.834646 0.373648 0.074073
v  -2.834646 0.556283 0.074073
v  -2.578442 0.556283 0.074073
v  -3.218579 0.556283 -0.122778
v  -2.834646 0.556283 -0.122778
v  0.000000 0.556283 -0.122778
v  -0.708661 0.556283 -0.122778
v  -0.708661 0.738918 -0.122778
v  0.000000 0.738918 -0.122778
v  -1.417323 0.556283 -0.122778
v  -1.417323 0.738918 -0.122778
v  -1.673527 0.556283 -0.122778
v  -2.125984 0.556283 -0.122778
v  -2.125984 0.738918 -0.122778
v  -2.578442 0.556283 -0.122778
v  -2.834646 0.738918 -0.122778
v  -3.218579 0.738918 -0.122778
v  -0.708661 0.921553 -0.122778
v  0.000000 0.921553 -0.122778
v  -1.417323 0.921553 -0.122778
v  -2.125984 0.921553 -0.122778
v  -2.834646 0.921553 -0.122778
v  -3.218579 0.921553 -0.122778
v  -2.952756 0.008378 -0.004667
v  -3.208712 0.008378 -0.004667
v  -2.125984 0.008378 0.122778
v  -2.834646 0.008378 0.122778
v  -1.417323 0.008378 0.122778
v  -0.708661 0.008378 0.122778
v  0.000000 0.008378 0.122778
v  -2.834646 0.921553 0.122778
v  -2.125984 0.921553 0.122778
v  -1.417323 0.921553 0.122778
v  -0.708661 0.921553 0.122778
v  0.000000 0.921553 0.122778
v  -3.218579 0.921553 0.122778
v  -0.708661 0.724703 0.122778
v  0.000000 0.724703 0.122778
v  -1.417323 0.724703 0.122778
v  -2.125984 0.724703 0.122778
v  -2.834646 0.724703 0.122778
v  -3.218579 0.724703 0.122778
v  0.708661 0.191013 -0.122778
v  0.708661 0.008378 -0.122778
v  1.417323 0.191013 -0.122778
v  1.417323 0.008378 -0.122778
v  1.673527 0.191013 -0.122778
v  2.125984 0.191013 -0.122778
v  2.125984 0.008378 -0.122778
v  2.578442 0.191013 -0.122778
v  2.834646 0.191013 -0.122778
v  2.834646 0.008378 -0.122778
v  3.218579 0.008378 -0.122778
v  3.218579 0.191013 -0.122778
v  0.708661 0.373648 -0.122778
v  1.417323 0.373648 -0.122778
v  2.125984 0.373648 -0.122778
v  2.834646 0.373648 -0.122778
v  3.218579 0.373648 -0.122778
v  0.708661 0.556283 0.074073
v  0.708661 0.373648 0.074073
v  1.417323 0.556283 0.074073
v  1.417323 0.373648 0.074073
v  1.673527 0.556283 0.074073
v  2.125984 0.556283 0.074073
v  2.125984 0.373648 0.074073
v  2.578442 0.556283 0.074073
v  2.834646 0.556283 0.074073
v  2.834646 0.373648 0.074073
v  2.834646 0.556283 -0.122778
v  3.218579 0.556283 -0.122778
v  0.708661 0.738918 -0.122778
v  0.708661 0.556283 -0.122778
v  1.417323 0.738918 -0.122778
v  1.417323 0.556283 -0.122778
v  2.125984 0.738918 -0.122778
v  1.673527 0.556283 -0.122778
v  2.125984 0.556283 -0.122778
v  2.834646 0.738918 -0.122778
v  2.578442 0.556283 -0.122778
v  3.218579 0.738918 -0.122778
v  0.708661 0.921553 -0.122778
v  1.417323 0.921553 -0.122778
v  2.125984 0.921553 -0.122778
v  2.834646 0.921553 -0.122778
v  3.218579 0.921553 -0.122778
v  3.208712 0.008378 -0.004667
v  2.952756 0.008378 -0.004667
v  2.834646 0.008378 0.122778
v  2.125984 0.008378 0.122778
v  1.417323 0.008378 0.122778
v  0.708661 0.008378 0.122778
v  2.125984 0.921553 0.122778
v  2.834646 0.921553 0.122778
v  1.417323 0.921553 0.122778
v  0.708661 0.921553 0.122778
v  3.218579 0.921553 0.122778
v  0.708661 0.724703 0.122778
v  1.417323 0.724703 0.122778
v  2.125984 0.724703 0.122778
v  2.834646 0.724703 0.122778
v  3.218579 0.724703 0.122778
# 131 vertices

vn 0.000000 0.000000 -1.000000
vn 0.000000 1.000000 -0.000000
vn 1.000000 0.000000 -0.000000
vn 0.000000 -1.000000 -0.000000
vn 0.000000 0.000000 1.000000
vn -1.000000 0.000000 -0.000000
# 6 vertex normals

vt 0.500000 0.999496 0.000500
vt 0.390021 0.999496 0.000500
vt 0.390021 0.999496 0.200300
vt 0.500000 0.999496 0.200300
vt 0.280042 0.999498 0.000500
vt 0.280042 0.999498 0.200300
vt 0.170063 0.999498 0.000500
vt 0.170062 0.999498 0.200300
vt 0.240281 0.999498 0.200300
vt 0.060083 0.999498 0.000500
vt 0.060083 0.999498 0.200300
vt 0.099844 0.999498 0.200300
vt 0.000500 0.999500 0.000500
vt 0.000500 0.999500 0.200300
vt 0.390021 0.999496 0.400100
vt 0.500000 0.999496 0.400100
vt 0.280042 0.999498 0.400100
vt 0.170062 0.999498 0.400100
vt 0.060083 0.999498 0.400100
vt 0.000500 0.999500 0.400100
vt 0.500000 0.198648 0.400100
vt 0.390021 0.198649 0.400100
vt 0.390021 0.198649 0.599900
vt 0.500000 0.198648 0.599900
vt 0.280042 0.198649 0.400100
vt 0.280042 0.198649 0.599900
vt 0.170062 0.198650 0.400100
vt 0.170062 0.198650 0.599900
vt 0.240281 0.198650 0.599900
vt 0.060083 0.198651 0.400100
vt 0.060083 0.198651 0.599900
vt 0.099844 0.198651 0.599900
vt 0.000500 0.999500 0.599900
vt 0.060083 0.999498 0.599900
vt 0.500000 0.999496 0.599900
vt 0.390021 0.999496 0.599900
vt 0.390021 0.999496 0.799700
vt 0.500000 0.999496 0.799700
vt 0.280042 0.999498 0.599900
vt 0.280042 0.999498 0.799700
vt 0.240281 0.999498 0.599900
vt 0.170062 0.999498 0.599900
vt 0.170062 0.999498 0.799700
vt 0.099844 0.999498 0.599900
vt 0.060083 0.999498 0.799700
vt 0.000500 0.999500 0.799700
vt 0.390021 0.999496 0.999500
vt 0.500000 0.999496 0.999500
vt 0.280042 0.999498 0.999500
vt 0.170063 0.999498 0.999500
vt 0.060083 0.999498 0.999500
vt 0.000500 0.999500 0.999500
vt 0.041753 0.518991 0.000500
vt 0.002031 0.518991 0.000500
vt 0.170063 0.000504 0.000500
vt 0.060083 0.000504 0.000500
vt 0.280042 0.000503 0.000500
vt 0.390021 0.000503 0.000500
vt 0.500000 0.000502 0.000500
vt 0.060083 0.000504 0.999500
vt 0.170063 0.000504 0.999500
vt 0.280042 0.000503 0.999500
vt 0.390021 0.000503 0.999500
vt 0.500000 0.000502 0.999500
vt 0.000500 0.000504 0.999500
vt 0.390021 0.000503 0.784149
vt 0.500000 0.000502 0.784149
vt 0.280042 0.000503 0.784149
vt 0.170063 0.000504 0.784149
vt 0.060083 0.000504 0.784149
vt 0.000500 0.000504 0.784149
vt 0.609979 0.999496 0.200300
vt 0.609979 0.999496 0.000500
vt 0.719958 0.999495 0.200300
vt 0.719958 0.999495 0.000500
vt 0.759719 0.999495 0.200300
vt 0.829938 0.999495 0.200300
vt 0.829938 0.999495 0.000500
vt 0.900156 0.999495 0.200300
vt 0.939917 0.999495 0.200300
vt 0.939917 0.999495 0.000500
vt 0.999500 0.999493 0.000500
vt 0.999500 0.999493 0.200300
vt 0.609979 0.999496 0.400100
vt 0.719958 0.999495 0.400100
vt 0.829938 0.999495 0.400100
vt 0.939917 0.999495 0.400100
vt 0.999500 0.999493 0.400100
vt 0.609979 0.198647 0.599900
vt 0.609979 0.198647 0.400100
vt 0.719958 0.198647 0.599900
vt 0.719958 0.198647 0.400100
vt 0.759719 0.198647 0.599900
vt 0.829938 0.198647 0.599900
vt 0.829938 0.198647 0.400100
vt 0.900156 0.198646 0.599900
vt 0.939917 0.198646 0.599900
vt 0.939917 0.198646 0.400100
vt 0.939917 0.999495 0.599900
vt 0.999500 0.999493 0.599900
vt 0.609979 0.999496 0.799700
vt 0.609979 0.999496 0.599900
vt 0.719958 0.999495 0.799700
vt 0.719958 0.999495 0.599900
vt 0.829938 0.999495 0.799700
vt 0.759719 0.999495 0.599900
vt 0.829938 0.999495 0.599900
vt 0.939917 0.999495 0.799700
vt 0.900156 0.999495 0.599900
vt 0.999500 0.999493 0.799700
vt 0.609979 0.999496 0.999500
vt 0.719958 0.999495 0.999500
vt 0.829938 0.999495 0.999500
vt 0.939917 0.999495 0.999500
vt 0.999500 0.999493 0.999500
vt 0.997969 0.518985 0.000500
vt 0.958247 0.518985 0.000500
vt 0.939917 0.000499 0.000500
vt 0.829938 0.000500 0.000500
vt 0.719958 0.000501 0.000500
vt 0.609979 0.000501 0.000500
vt 0.829938 0.000500 0.999500
vt 0.939917 0.000499 0.999500
vt 0.719958 0.000501 0.999500
vt 0.609979 0.000501 0.999500
vt 0.999500 0.000499 0.999500
vt 0.609979 0.000501 0.784149
vt 0.719958 0.000501 0.784149
vt 0.829938 0.000500 0.784149
vt 0.939917 0.000499 0.784149
vt 0.999500 0.000499 0.784149
# 131 texture coords

g Frame_plank_voor
usemtl 01___Default
f 1/1/1 2/2/1 3/3/1 4/4/1 
f 2/2/1 5/5/1 6/6/1 3/3/1 
f 5/5/1 7/7/1 8/8/1 9/9/1 
f 5/5/1 9/9/1 6/6/1 
f 7/7/1 10/10/1 11/11/1 12/12/1 
f 7/7/1 12/12/1 8/8/1 
f 13/13/1 14/14/1 11/11/1 10/10/1 
f 4/4/1 3/3/1 15/15/1 16/16/1 
f 3/3/1 6/6/1 17/17/1 15/15/1 
f 9/9/1 8/8/1 18/18/1 6/6/1 
f 6/6/1 18/18/1 17/17/1 
f 12/12/1 11/11/1 19/19/1 8/8/1 
f 8/8/1 19/19/1 18/18/1 
f 14/14/1 20/20/1 19/19/1 11/11/1 
f 21/21/1 22/22/1 23/23/1 24/24/1 
f 22/22/1 25/25/1 26/26/1 23/23/1 
f 25/25/1 27/27/1 28/28/1 29/29/1 
f 25/25/1 29/29/1 26/26/1 
f 27/27/1 30/30/1 31/31/1 32/32/1 
f 27/27/1 32/32/1 28/28/1 
f 20/20/1 33/33/1 34/34/1 19/19/1 
f 35/35/1 36/36/1 37/37/1 38/38/1 
f 36/36/1 39/39/1 40/40/1 37/37/1 
f 41/41/1 42/42/1 43/43/1 39/39/1 
f 39/39/1 43/43/1 40/40/1 
f 44/44/1 34/34/1 45/45/1 42/42/1 
f 42/42/1 45/45/1 43/43/1 
f 33/33/1 46/46/1 45/45/1 34/34/1 
f 38/38/1 37/37/1 47/47/1 48/48/1 
f 37/37/1 40/40/1 49/49/1 47/47/1 
f 40/40/1 43/43/1 50/50/1 49/49/1 
f 43/43/1 45/45/1 51/51/1 50/50/1 
f 46/46/1 52/52/1 51/51/1 45/45/1 
f 16/16/2 15/15/2 22/22/2 21/21/2 
f 15/15/2 17/17/2 25/25/2 22/22/2 
f 17/17/2 18/18/2 27/27/2 25/25/2 
f 18/18/2 19/19/2 30/30/2 27/27/2 
f 19/19/3 34/34/3 31/31/3 30/30/3 
f 34/34/4 44/44/4 32/32/4 31/31/4 
f 44/44/4 42/42/4 28/28/4 32/32/4 
f 42/42/4 41/41/4 29/29/4 28/28/4 
f 41/41/4 39/39/4 26/26/4 29/29/4 
f 39/39/4 36/36/4 23/23/4 26/26/4 
f 36/36/4 35/35/4 24/24/4 23/23/4 
f 13/13/4 10/10/4 53/53/4 54/54/4 
f 10/10/4 7/7/4 55/55/4 56/56/4 
f 7/7/4 5/5/4 57/57/4 55/55/4 
f 5/5/4 2/2/4 58/58/4 57/57/4 
f 2/2/4 1/1/4 59/59/4 58/58/4 
f 50/50/2 51/51/2 60/60/2 61/61/2 
f 49/49/2 50/50/2 61/61/2 62/62/2 
f 47/47/2 49/49/2 62/62/2 63/63/2 
f 48/48/2 47/47/2 63/63/2 64/64/2 
f 51/51/2 52/52/2 65/65/2 60/60/2 
f 64/64/5 63/63/5 66/66/5 67/67/5 
f 63/63/5 62/62/5 68/68/5 66/66/5 
f 62/62/5 61/61/5 69/69/5 68/68/5 
f 61/61/5 60/60/5 70/70/5 69/69/5 
f 60/60/5 65/65/5 71/71/5 70/70/5 
f 1/1/1 4/4/1 72/72/1 73/73/1 
f 73/73/1 72/72/1 74/74/1 75/75/1 
f 75/75/1 74/74/1 76/76/1 77/77/1 
f 75/75/1 77/77/1 78/78/1 
f 78/78/1 77/77/1 79/79/1 80/80/1 
f 78/78/1 80/80/1 81/81/1 
f 82/82/1 81/81/1 80/80/1 83/83/1 
f 4/4/1 16/16/1 84/84/1 72/72/1 
f 72/72/1 84/84/1 85/85/1 74/74/1 
f 74/74/1 85/85/1 86/86/1 76/76/1 
f 86/86/1 77/77/1 76/76/1 
f 77/77/1 86/86/1 87/87/1 79/79/1 
f 87/87/1 80/80/1 79/79/1 
f 83/83/1 80/80/1 87/87/1 88/88/1 
f 21/21/1 24/24/1 89/89/1 90/90/1 
f 90/90/1 89/89/1 91/91/1 92/92/1 
f 92/92/1 91/91/1 93/93/1 94/94/1 
f 92/92/1 94/94/1 95/95/1 
f 95/95/1 94/94/1 96/96/1 97/97/1 
f 95/95/1 97/97/1 98/98/1 
f 88/88/1 87/87/1 99/99/1 100/100/1 
f 35/35/1 38/38/1 101/101/1 102/102/1 
f 102/102/1 101/101/1 103/103/1 104/104/1 
f 104/104/1 103/103/1 105/105/1 106/106/1 
f 105/105/1 107/107/1 106/106/1 
f 107/107/1 105/105/1 108/108/1 109/109/1 
f 108/108/1 99/99/1 109/109/1 
f 100/100/1 99/99/1 108/108/1 110/110/1 
f 38/38/1 48/48/1 111/111/1 101/101/1 
f 101/101/1 111/111/1 112/112/1 103/103/1 
f 103/103/1 112/112/1 113/113/1 105/105/1 
f 105/105/1 113/113/1 114/114/1 108/108/1 
f 110/110/1 108/108/1 114/114/1 115/115/1 
f 16/16/2 21/21/2 90/90/2 84/84/2 
f 84/84/2 90/90/2 92/92/2 85/85/2 
f 85/85/2 92/92/2 95/95/2 86/86/2 
f 86/86/2 95/95/2 98/98/2 87/87/2 
f 87/87/6 98/98/6 97/97/6 99/99/6 
f 99/99/4 97/97/4 96/96/4 109/109/4 
f 109/109/4 96/96/4 94/94/4 107/107/4 
f 107/107/4 94/94/4 93/93/4 106/106/4 
f 106/106/4 93/93/4 91/91/4 104/104/4 
f 104/104/4 91/91/4 89/89/4 102/102/4 
f 102/102/4 89/89/4 24/24/4 35/35/4 
f 82/82/4 116/116/4 117/117/4 81/81/4 
f 81/81/4 118/118/4 119/119/4 78/78/4 
f 78/78/4 119/119/4 120/120/4 75/75/4 
f 75/75/4 120/120/4 121/121/4 73/73/4 
f 73/73/4 121/121/4 59/59/4 1/1/4 
f 113/113/2 122/122/2 123/123/2 114/114/2 
f 112/112/2 124/124/2 122/122/2 113/113/2 
f 111/111/2 125/125/2 124/124/2 112/112/2 
f 48/48/2 64/64/2 125/125/2 111/111/2 
f 114/114/2 123/123/2 126/126/2 115/115/2 
f 64/64/5 67/67/5 127/127/5 125/125/5 
f 125/125/5 127/127/5 128/128/5 124/124/5 
f 124/124/5 128/128/5 129/129/5 122/122/5 
f 122/122/5 129/129/5 130/130/5 123/123/5 
f 123/123/5 130/130/5 131/131/5 126/126/5 
# 102 polygons - 16 triangles

