# 3ds Max Wavefront OBJ Exporter v0.97b - (c)2007 guruware
# File Created: 13.12.2016 00:50:49

mtllib poot_links_achter.mtl

#
# object Poot_rechts_voor
#

v  -0.236219 0.000000 -0.103701
v  -0.019734 0.000000 -0.103701
v  -0.019734 0.000000 0.275591
v  -0.236219 0.000000 0.275591
v  -0.019734 0.590551 0.275591
v  0.236222 0.000000 0.275591
v  0.236222 0.590551 0.275591
v  -0.236219 0.590551 -0.103701
v  -0.236219 0.590551 0.275591
v  -0.019734 0.590551 -0.275591
v  -0.019734 0.000000 -0.275591
v  -0.236219 0.000000 -0.275591
v  -0.236219 0.590551 -0.275591
v  0.236222 0.590551 -0.103701
v  0.236222 0.000000 -0.103701
v  0.236222 0.000000 -0.275591
v  0.236222 0.590551 -0.275591
# 17 vertices

vn 0.000000 -1.000000 -0.000000
vn 0.000000 0.000000 1.000000
vn -1.000000 0.000000 -0.000000
vn 0.000000 0.000000 -1.000000
vn 1.000000 0.000000 -0.000000
vn 0.000000 1.000000 -0.000000
# 6 vertex normals

vt 1.000000 0.968815 0.000000
vt 0.954177 0.968815 0.000000
vt 0.954177 0.900000 0.000000
vt 1.000000 0.900000 0.000000
vt 0.900000 0.900000 0.000000
vt 0.954177 1.000000 0.000000
vt 1.000000 1.000000 0.000000
vt 0.900000 0.968815 0.000000
vt 0.900000 1.000000 0.000000
# 9 texture coords

g Poot_rechts_voor
usemtl 01___Default
f 1/1/1 2/2/1 3/3/1 4/4/1 
f 5/3/2 3/3/2 6/5/2 7/5/2 
f 8/1/3 1/1/3 4/4/3 9/4/3 
f 10/6/4 11/6/4 12/7/4 13/7/4 
f 14/8/5 15/8/5 16/9/5 17/9/5 
f 16/9/1 15/8/1 2/2/1 11/6/1 
f 9/4/2 4/4/2 3/3/2 5/3/2 
f 17/9/4 16/9/4 11/6/4 10/6/4 
f 12/7/1 11/6/1 2/2/1 1/1/1 
f 13/7/3 12/7/3 1/1/3 8/1/3 
f 7/5/5 6/5/5 15/8/5 14/8/5 
f 6/5/1 3/3/1 2/2/1 15/8/1 
f 7/5/6 14/8/6 5/3/6 
f 5/3/6 14/8/6 17/9/6 9/4/6 
f 8/1/6 9/4/6 17/9/6 10/6/6 
f 13/7/6 8/1/6 10/6/6 
# 14 polygons - 2 triangles

