# 3ds Max Wavefront OBJ Exporter v0.97b - (c)2007 guruware
# File Created: 13.12.2016 00:50:20

mtllib poot_rechts_achter.mtl

#
# object Poot_links_voor
#

v  0.236221 0.000000 -0.103701
v  0.236221 0.000000 0.275591
v  0.019736 0.000000 0.275591
v  0.019736 0.000000 -0.103701
v  0.019736 0.590551 0.275591
v  -0.236220 0.590551 0.275591
v  -0.236220 0.000000 0.275591
v  0.236221 0.590551 -0.103701
v  0.236221 0.590551 0.275591
v  0.019736 0.590551 -0.275591
v  0.236221 0.590551 -0.275591
v  0.236221 0.000000 -0.275591
v  0.019736 0.000000 -0.275591
v  -0.236220 0.590551 -0.103701
v  -0.236220 0.590551 -0.275591
v  -0.236220 0.000000 -0.275591
v  -0.236220 0.000000 -0.103701
# 17 vertices

vn 0.000000 -1.000000 -0.000000
vn 0.000000 0.000000 1.000000
vn 1.000000 0.000000 -0.000000
vn 0.000000 0.000000 -1.000000
vn -1.000000 0.000000 -0.000000
vn 0.000000 1.000000 -0.000000
# 6 vertex normals

vt 0.999501 0.687956 0.000500
vt 0.999500 0.000500 0.000500
vt 0.541731 0.000500 0.000500
vt 0.541732 0.687956 0.000500
vt 0.541731 0.000500 0.999500
vt 0.000500 0.000500 0.999500
vt 0.000500 0.000500 0.000500
vt 0.999501 0.687956 0.999500
vt 0.999500 0.000500 0.999500
vt 0.541732 0.999500 0.999500
vt 0.999501 0.999500 0.999500
vt 0.999501 0.999500 0.000500
vt 0.541732 0.999500 0.000500
vt 0.000500 0.687956 0.999500
vt 0.000500 0.999500 0.999500
vt 0.000500 0.999500 0.000500
vt 0.000500 0.687956 0.000500
# 17 texture coords

g Poot_links_voor
usemtl 01___Default
f 1/1/1 2/2/1 3/3/1 4/4/1 
f 5/5/2 6/6/2 7/7/2 3/3/2 
f 8/8/3 9/9/3 2/2/3 1/1/3 
f 10/10/4 11/11/4 12/12/4 13/13/4 
f 14/14/5 15/15/5 16/16/5 17/17/5 
f 16/16/1 13/13/1 4/4/1 17/17/1 
f 9/9/2 5/5/2 3/3/2 2/2/2 
f 15/15/4 10/10/4 13/13/4 16/16/4 
f 12/12/1 1/1/1 4/4/1 13/13/1 
f 11/11/3 8/8/3 1/1/3 12/12/3 
f 6/6/5 14/14/5 17/17/5 7/7/5 
f 7/7/1 17/17/1 4/4/1 3/3/1 
f 5/5/3 9/9/3 6/6/3 
f 6/6/6 9/9/6 8/8/6 14/14/6 
f 14/14/6 8/8/6 11/11/6 15/15/6 
f 10/10/3 15/15/3 11/11/3 
# 14 polygons - 2 triangles

