# 3ds Max Wavefront OBJ Exporter v0.97b - (c)2007 guruware
# File Created: 13.12.2016 00:50:35

mtllib poot_links_voor.mtl

#
# object Poot_rechts_achter
#

v  -0.236219 0.001350 -0.275591
v  -0.019734 0.001350 -0.275591
v  -0.019734 0.001350 0.275591
v  -0.236219 0.001350 0.275591
v  -0.236219 0.591901 0.275591
v  -0.236219 0.591901 -0.275591
v  -0.019734 0.591901 -0.275591
v  0.236222 0.591901 -0.275591
v  0.236222 0.591901 0.275591
v  0.236222 0.001350 0.275591
v  0.236222 0.001350 -0.275591
v  -0.019734 0.591901 0.275591
# 12 vertices

vn 0.000000 -1.000000 -0.000000
vn -1.000000 0.000000 -0.000000
vn 0.000000 0.000000 -1.000000
vn 1.000000 0.000000 -0.000000
vn 0.000000 0.000000 1.000000
vn 0.000000 1.000000 -0.000000
# 6 vertex normals

vt 0.000499 0.999501 0.000500
vt 0.458268 0.999501 0.000500
vt 0.458268 0.000501 0.000500
vt 0.000499 0.000501 0.000500
vt 0.000499 0.000501 0.999500
vt 0.000499 0.999501 0.999500
vt 0.458268 0.999501 0.999500
vt 0.999500 0.999500 0.999500
vt 0.999500 0.000500 0.999500
vt 0.999500 0.000500 0.000500
vt 0.999500 0.999500 0.000500
vt 0.458268 0.000501 0.999500
# 12 texture coords

g Poot_rechts_achter
usemtl 01___Default
f 1/1/1 2/2/1 3/3/1 4/4/1 
f 5/5/2 6/6/2 1/1/2 4/4/2 
f 7/7/3 2/2/3 1/1/3 6/6/3 
f 8/8/4 9/9/4 10/10/4 11/11/4 
f 12/12/5 3/3/5 10/10/5 9/9/5 
f 11/11/1 10/10/1 3/3/1 2/2/1 
f 8/8/3 11/11/3 2/2/3 7/7/3 
f 5/5/5 4/4/5 3/3/5 12/12/5 
f 5/5/6 12/12/6 6/6/6 
f 7/7/6 6/6/6 12/12/6 9/9/6 
f 8/8/6 7/7/6 9/9/6 
# 9 polygons - 2 triangles

